<?xml version="1.0" encoding="utf-8"?>
<!-- Generator: Adobe Illustrator 28.3.0, SVG Export Plug-In . SVG Version: 6.00 Build 0)  -->

<svg version="1.2" baseProfile="tiny-ps" id="Layer_1" xmlns="http://www.w3.org/2000/svg" xmlns:xlink="http://www.w3.org/1999/xlink"
	 viewBox="0 0 200 200" overflow="visible" xml:space="preserve">

<rect x="0" y="0" fill="#FFFFFF" width="200" height="200"/>

<title>Hashspark</title>
 <desc>The Hashspark Logo - Future Tech and Blockchain Use Cases</desc>


<g>
	<path fill="#FCBD0E" d="M60.08,147.78L60.08,147.78c-6.73-3.59-14.81-3.59-21.54,0c-0.5,0.27-1.04-0.28-0.78-0.78
		c3.59-6.73,3.59-14.81,0-21.54c-0.27-0.5,0.28-1.04,0.78-0.78c6.73,3.59,14.81,3.59,21.54,0c0.5-0.27,1.04,0.28,0.78,0.78
		c-3.59,6.73-3.59,14.81,0,21.54C61.12,147.5,60.58,148.05,60.08,147.78"/>
	<path fill="#152A45" d="M156.13,111.02c-4.25-3.28-11.36-5.38-21.34-6.31c-4.8-0.55-8.06-1.2-9.77-1.94
		c-1.71-0.74-2.56-2.12-2.56-4.16c0-4.16,3.09-6.24,9.29-6.24h1.11c5.36,0,8.45,1.48,9.28,4.44c0.46,1.39,1.29,2.08,2.49,2.08h12.61
		c0.74,0,1.39-0.25,1.94-0.76c0.56-0.51,0.83-1.13,0.83-1.87v-0.28c-0.74-5.82-3.42-10.26-8.04-13.3
		c-4.62-3.05-10.99-4.57-19.12-4.57h-1.53c-8.41,0-15.06,1.8-19.95,5.41c-4.9,3.6-7.34,8.87-7.34,15.8c0,4.53,0.95,8.15,2.84,10.88
		c1.89,2.73,4.94,4.83,9.15,6.31c4.2,1.48,10,2.63,17.39,3.46c3.6,0.37,6.28,1.06,8.04,2.08c1.75,1.02,2.63,2.63,2.63,4.85
		c0,4.9-3.46,7.34-10.39,7.34h-30.57c-1.44,0-2.6-1.16-2.6-2.6v-29.27c0-6.93-1.85-12.47-5.54-16.63c-3.7-4.16-8.87-6.24-15.52-6.24
		H76.4c-3.88,0-7.3,0.74-10.26,2.22c-2.96,1.48-5.27,3.6-6.93,6.38V54.13c0-0.74-0.26-1.36-0.76-1.87
		c-0.51-0.51-1.13-0.76-1.87-0.76H42.03c-0.74,0-1.36,0.26-1.87,0.76c-0.51,0.51-0.76,1.13-0.76,1.87v52.14c0,1.44,1.17,2.6,2.6,2.6
		h14.81c1.31,0,2.41-0.97,2.58-2.26c0.26-1.98,0.93-4.84,2.6-6.89c1.87-2.29,4.34-3.46,7.48-3.46h3.33c2.4,0,4.32,0.79,5.75,2.36
		c1.43,1.57,2.15,3.79,2.15,6.65v40.6c0,0.74,0.25,1.36,0.76,1.87c0.51,0.51,1.13,0.76,1.87,0.76h6.74h7.81h35.11
		c9.24,0,16.47-1.89,21.69-5.68c5.22-3.79,7.83-9.47,7.83-17.05C162.5,119.22,160.38,114.3,156.13,111.02"/>
</g>
</svg>
