<?xml version="1.0" encoding="UTF-8"?><svg id="Layer_1" xmlns="http://www.w3.org/2000/svg" viewBox="0 0 755.24 127.92"><defs><style>.cls-1,.cls-2{fill:#00537a;}.cls-1,.cls-3{fill-rule:evenodd;}.cls-4,.cls-3{fill:#ffce04;}</style></defs><path class="cls-2" d="m118.63,28.67c5.02,0,9.71.95,14.08,2.86,4.37,1.91,8.18,4.48,11.43,7.74,3.25,3.25,5.83,7.06,7.74,11.43,1.9,4.37,2.86,9.01,2.86,13.94s-.95,9.57-2.86,13.94c-1.91,4.37-4.48,8.18-7.74,11.43-3.25,3.25-7.06,5.83-11.43,7.74-4.37,1.9-9.06,2.86-14.08,2.86s-9.71-.95-14.08-2.86c-4.37-1.9-8.18-4.48-11.43-7.74-3.25-3.25-5.83-7.06-7.74-11.43-1.91-4.37-2.86-9.01-2.86-13.94s.95-9.57,2.86-13.94c1.9-4.37,4.48-8.18,7.74-11.43,3.25-3.25,7.06-5.83,11.43-7.74,4.37-1.9,9.06-2.86,14.08-2.86Zm0,55.34c2.32,0,4.48-.51,6.48-1.53,2-1.02,3.76-2.44,5.3-4.25,1.53-1.81,2.74-3.9,3.62-6.27.88-2.37,1.32-4.95,1.32-7.74,0-2.6-.44-5.09-1.32-7.46-.88-2.37-2.09-4.41-3.62-6.13-1.53-1.72-3.3-3.09-5.3-4.11-2-1.02-4.16-1.53-6.48-1.53s-4.51.51-6.55,1.53c-2.04,1.02-3.83,2.39-5.37,4.11-1.53,1.72-2.74,3.76-3.62,6.13-.88,2.37-1.32,4.86-1.32,7.46,0,2.79.44,5.37,1.32,7.74.88,2.37,2.09,4.46,3.62,6.27,1.53,1.81,3.32,3.23,5.37,4.25,2.04,1.02,4.23,1.53,6.55,1.53Z"/><path class="cls-2" d="m180.24,1.91v97.58h-18.54l.14-97.58h18.4Z"/><path class="cls-2" d="m188.61,99.49V29.79h18.54v69.7h-18.54Z"/><path class="cls-2" d="m266.39,72.86l15.05,9.9-.14.14c-3.25,5.58-7.64,9.94-13.17,13.1-5.53,3.16-11.5,4.74-17.91,4.74-5.02,0-9.71-.95-14.08-2.86-4.37-1.9-8.18-4.48-11.43-7.74-3.25-3.25-5.83-7.06-7.74-11.43-1.91-4.37-2.86-9.01-2.86-13.94s.95-9.57,2.86-13.94c1.9-4.37,4.48-8.18,7.74-11.43,3.25-3.25,7.06-5.83,11.43-7.74,4.37-1.9,9.06-2.86,14.08-2.86,6.41,0,12.38,1.58,17.91,4.74,5.53,3.16,9.92,7.53,13.17,13.1l.14.14-15.19,9.9-.14-.14c-1.49-3.44-3.65-6.22-6.48-8.36-2.84-2.14-5.97-3.21-9.41-3.21-2.51,0-4.86.54-7.04,1.6-2.18,1.07-4.07,2.51-5.65,4.32-1.58,1.81-2.84,3.9-3.76,6.27-.93,2.37-1.39,4.9-1.39,7.6s.46,5.21,1.39,7.53c.93,2.32,2.18,4.35,3.76,6.06,1.58,1.72,3.46,3.07,5.65,4.04,2.18.98,4.53,1.46,7.04,1.46,3.44,0,6.57-.95,9.41-2.86,2.83-1.9,4.99-4.58,6.48-8.02l.14-.28.14.14Z"/><path class="cls-2" d="m306.12,90.01l-24.39-60.22h19.93v.14l17.98,50.6-13.52,9.48Zm53.39-60.22l-.14.28c-1.58,4.28-3.11,8.43-4.6,12.48-1.49,4.04-2.88,7.83-4.18,11.36-4.65,13.01-8.81,24.18-12.48,33.52-3.67,9.34-7.6,16.94-11.78,22.79-4.18,6.04-8.9,10.41-14.15,13.1-5.25,2.7-11.83,4.04-19.72,4.04h-.28v-18.96h.28c2.42,0,4.58-.09,6.48-.28,1.9-.19,3.65-.58,5.23-1.18,1.58-.61,3.04-1.44,4.39-2.51,1.35-1.07,2.62-2.49,3.83-4.25,1.21-1.67,2.42-3.72,3.62-6.13,1.21-2.42,2.46-5.3,3.76-8.64,1.3-3.35,2.74-7.22,4.32-11.64,1.58-4.41,3.35-9.41,5.3-14.98,1.49-4.18,3.07-8.64,4.74-13.38,1.67-4.74,3.49-9.9,5.44-15.47v-.14h19.93Z"/><path class="cls-2" d="m473.52,1.91v97.58h-18.54l.14-97.58h18.4Z"/><path class="cls-2" d="m516.6,28.67c5.02,0,9.71.95,14.08,2.86,4.37,1.91,8.18,4.48,11.43,7.74,3.25,3.25,5.83,7.06,7.74,11.43,1.9,4.37,2.86,9.01,2.86,13.94s-.95,9.57-2.86,13.94c-1.91,4.37-4.48,8.18-7.74,11.43-3.25,3.25-7.06,5.83-11.43,7.74-4.37,1.9-9.06,2.86-14.08,2.86s-9.71-.95-14.08-2.86c-4.37-1.9-8.18-4.48-11.43-7.74-3.25-3.25-5.83-7.06-7.74-11.43-1.91-4.37-2.86-9.01-2.86-13.94s.95-9.57,2.86-13.94c1.9-4.37,4.48-8.18,7.74-11.43,3.25-3.25,7.06-5.83,11.43-7.74,4.37-1.9,9.06-2.86,14.08-2.86Zm0,55.34c2.32,0,4.48-.51,6.48-1.53,2-1.02,3.76-2.44,5.3-4.25,1.53-1.81,2.74-3.9,3.62-6.27.88-2.37,1.32-4.95,1.32-7.74,0-2.6-.44-5.09-1.32-7.46-.88-2.37-2.09-4.41-3.62-6.13-1.53-1.72-3.3-3.09-5.3-4.11-2-1.02-4.16-1.53-6.48-1.53s-4.51.51-6.55,1.53c-2.04,1.02-3.83,2.39-5.37,4.11-1.53,1.72-2.74,3.76-3.62,6.13-.88,2.37-1.32,4.86-1.32,7.46,0,2.79.44,5.37,1.32,7.74.88,2.37,2.09,4.46,3.62,6.27,1.53,1.81,3.32,3.23,5.37,4.25,2.04,1.02,4.23,1.53,6.55,1.53Z"/><path class="cls-2" d="m610.55,72.86l15.05,9.9-.14.14c-3.25,5.58-7.64,9.94-13.17,13.1-5.53,3.16-11.5,4.74-17.91,4.74-5.02,0-9.71-.95-14.08-2.86-4.37-1.9-8.18-4.48-11.43-7.74-3.25-3.25-5.83-7.06-7.74-11.43-1.91-4.37-2.86-9.01-2.86-13.94s.95-9.57,2.86-13.94c1.9-4.37,4.48-8.18,7.74-11.43,3.25-3.25,7.06-5.83,11.43-7.74,4.37-1.9,9.06-2.86,14.08-2.86,6.41,0,12.38,1.58,17.91,4.74,5.53,3.16,9.92,7.53,13.17,13.1l.14.14-15.19,9.9-.14-.14c-1.49-3.44-3.65-6.22-6.48-8.36-2.84-2.14-5.97-3.21-9.41-3.21-2.51,0-4.86.54-7.04,1.6-2.18,1.07-4.07,2.51-5.65,4.32-1.58,1.81-2.84,3.9-3.76,6.27-.93,2.37-1.39,4.9-1.39,7.6s.46,5.21,1.39,7.53c.93,2.32,2.18,4.35,3.76,6.06,1.58,1.72,3.46,3.07,5.65,4.04,2.18.98,4.53,1.46,7.04,1.46,3.44,0,6.57-.95,9.41-2.86,2.83-1.9,4.99-4.58,6.48-8.02l.14-.28.14.14Z"/><path class="cls-2" d="m734.05,58.09c3.07,1.02,5.88,2.07,8.43,3.14,2.55,1.07,4.79,2.35,6.69,3.83,1.9,1.49,3.39,3.28,4.46,5.37,1.07,2.09,1.6,4.58,1.6,7.46v.14c0,7.06-2.35,12.59-7.04,16.59-4.69,4-11.27,5.99-19.72,5.99-5.3,0-10.5-.91-15.61-2.74-5.11-1.83-9.9-4.43-14.36-7.8l-.14-.14.14-.14,9.48-14.96.14.14c2.79,2.98,5.95,5.23,9.48,6.76,3.53,1.53,7.29,2.3,11.29,2.3,5.48,0,8.22-1.76,8.22-5.28,0-1.67-.88-2.92-2.65-3.75-1.77-.83-3.86-1.62-6.27-2.37-.47-.18-.91-.3-1.32-.35-.42-.05-.86-.16-1.32-.35-2.79-.74-5.58-1.55-8.36-2.43-2.79-.88-5.3-2.09-7.53-3.62-2.23-1.53-4.07-3.47-5.51-5.84-1.44-2.36-2.16-5.4-2.16-9.11v-.28c0-3.25.6-6.21,1.81-8.9,1.21-2.69,2.93-5,5.16-6.95,2.23-1.95,4.92-3.45,8.09-4.52,3.16-1.06,6.64-1.6,10.45-1.6,4.46,0,8.97.68,13.52,2.02,4.55,1.35,8.78,3.32,12.68,5.92v.28l-8.5,15.47-.14-.14c-2.14-2.14-4.79-3.83-7.95-5.09-3.16-1.25-6.51-1.88-10.04-1.88-.65,0-1.39.05-2.23.14-.84.09-1.6.33-2.3.7-.7.37-1.28.86-1.74,1.46-.47.61-.7,1.46-.7,2.58,0,.84.37,1.6,1.12,2.3.74.7,1.69,1.35,2.86,1.95,1.16.61,2.46,1.19,3.9,1.74,1.44.56,2.86,1.07,4.25,1.53.28,0,.58.05.91.14.32.09.63.19.91.28Z"/><rect class="cls-4" x="188.61" y="1.91" width="18.54" height="16.31"/><path class="cls-2" d="m40.84,29.23c5.02,0,9.76.95,14.22,2.86,4.46,1.91,8.34,4.51,11.64,7.81,3.3,3.3,5.9,7.13,7.81,11.5,1.9,4.37,2.86,9.06,2.86,14.08s-.95,9.9-2.86,14.36c-1.91,4.46-4.51,8.34-7.81,11.64-3.3,3.3-7.18,5.9-11.64,7.81-4.46,1.9-9.2,2.86-14.22,2.86-6.88,0-12.59-1.85-17.15-5.53v-.14l6.97-12.73.14.14c2.51,1.11,5.06,1.67,7.67,1.67s5.25-.51,7.67-1.54c2.41-1.03,4.53-2.46,6.34-4.28,1.81-1.83,3.23-3.95,4.25-6.39,1.02-2.43,1.53-5.05,1.53-7.86s-.51-5.26-1.53-7.65c-1.02-2.39-2.44-4.47-4.25-6.25-1.81-1.78-3.93-3.18-6.34-4.21-2.42-1.03-4.97-1.54-7.67-1.54s-5.37.51-7.74,1.54c-2.37,1.02-4.44,2.42-6.2,4.19-1.77,1.77-3.16,3.84-4.18,6.21-1.02,2.37-1.53,4.91-1.53,7.61v62.55H0V30.35h18.82v9.39c5.02-7,12.36-10.5,22.02-10.5Z"/><polygon class="cls-3" points="648.03 30.62 631.18 30.62 631.18 99.49 631.42 99.49 720.22 0 712.38 0 648.03 55.55 648.03 30.62"/><polyline class="cls-1" points="694.02 99.49 673.1 67.48 662.18 79.72 674.9 99.49"/><path class="cls-2" d="m410.18,28.33c4.92,0,9.57.93,13.94,2.78,4.37,1.86,8.18,4.41,11.43,7.67s5.83,7.06,7.74,11.43c1.9,4.37,2.85,9.01,2.85,13.94s-.95,9.57-2.85,13.94c-1.91,4.37-4.49,8.18-7.74,11.43s-7.07,5.81-11.43,7.67c-4.37,1.86-9.01,2.79-13.94,2.79-9.57,0-16.87-3.53-21.89-10.6v9.48h-18.4V1.28h18.54v62.87c0,2.69.51,5.2,1.53,7.53,1.02,2.32,2.39,4.34,4.11,6.06s3.77,3.09,6.14,4.11c2.37,1.02,4.9,1.53,7.59,1.53s5.09-.51,7.46-1.53c2.37-1.02,4.41-2.39,6.13-4.11s3.09-3.74,4.11-6.06c1.02-2.33,1.53-4.83,1.53-7.53s-.51-5.21-1.53-7.53c-1.02-2.32-2.39-4.36-4.11-6.13-1.72-1.76-3.76-3.14-6.13-4.11-2.37-.98-4.86-1.46-7.46-1.46s-5.02.51-7.53,1.53l-.14.14-.14-.28-6.83-12.55.14-.14c4.55-3.53,10.18-5.29,16.87-5.29Z"/></svg>